<svg width="24" height="24" viewBox="0 0 24 24" fill="none" xmlns="http://www.w3.org/2000/svg">
<path d="M12.3 2.90001C12.4 3.00001 12.5 3.00001 12.6 3.10001C13.3 3.70001 13.9 4.20001 14.6 4.80001C14.9 5.00001 15.2 5.20001 15.5 5.20001C16.4 5.30001 17.2 5.40001 18.1 5.40001C18.6 5.40001 18.7 5.50001 18.8 6.10001C18.9 7.00001 18.9 7.90001 19 8.70001C19 9.10001 19.2 9.40001 19.4 9.70001C20 10.4 20.5 11 21.1 11.7C21.4 12.1 21.4 12.2 21.1 12.5C20.6 13.1 20 13.8 19.5 14.4C19.2 14.7 19 15.1 19 15.6C18.9 16.4 18.8 17.3 18.8 18.1C18.8 18.5 18.6 18.6 18.2 18.7C17.4 18.7 16.6 18.8 15.7 18.9C15.2 18.9 14.7 19.1 14.3 19.4C13.7 19.9 13 20.5 12.4 21C12.1 21.3 11.9 21.3 11.6 21C10.9 20.4 10.2 19.8 9.60001 19.2C9.30001 19 9.00001 18.8 8.70001 18.8C7.80001 18.7 6.90001 18.6 6.00001 18.6C5.60001 18.6 5.50001 18.4 5.40001 18.1C5.40001 17.2 5.30001 16.4 5.20001 15.5C5.20001 15.1 5.00001 14.7 4.80001 14.4C4.20001 13.8 3.70001 13.1 3.20001 12.4C2.80001 12 2.90001 11.9 3.20001 11.4C3.80001 10.8 4.30001 10.1 4.90001 9.50001C5.20001 9.20001 5.30001 8.90001 5.30001 8.50001C5.30001 7.70001 5.40001 6.90001 5.50001 6.00001C5.50001 5.50001 5.60001 5.40001 6.10001 5.40001C7.00001 5.30001 7.80001 5.30001 8.70001 5.20001C9.10001 5.20001 9.40001 5.00001 9.70001 4.80001C10.4 4.20001 11.1 3.60001 11.8 3.10001C11.9 2.90001 12.1 2.80001 12.3 2.90001Z" fill="#1A9CFF"/>
<path d="M16.4 10.1L16.2 10.3L10.8 15.7C10.7 15.8 10.6 15.9 10.4 15.7L7.80001 13.1C7.60001 12.9 7.70001 12.8 7.80001 12.7C8.00001 12.5 8.30001 12.1 8.50001 12.1C8.80001 12.1 9.00001 12.5 9.20001 12.7L10.3 13.8C10.5 14 10.6 14 10.8 13.8L15.1 9.50001C15.3 9.30001 15.5 9.20001 15.7 9.50001C15.8 9.70001 16 9.80001 16.1 10C16.3 10 16.4 10.1 16.4 10.1Z" fill="white"/>
</svg>
